<svg width="84" height="84" viewBox="0 0 84 84" fill="none" xmlns="http://www.w3.org/2000/svg">
    <path
        d="M42 0.333496C18.9881 0.333496 0.333336 18.9883 0.333336 42.0002C0.333336 65.0119 18.9881 83.6669 42 83.6669C65.0117 83.6669 83.6667 65.0119 83.6667 42.0002C83.6667 18.9883 65.0117 0.333496 42 0.333496ZM43.1671 60.8781C42.0575 61.9877 40.3217 62.0885 39.0984 61.1806L38.7479 60.8781L22.0776 44.2081C20.9681 43.0985 20.8673 41.3618 21.7754 40.1385L22.0781 39.7881L38.7513 23.1215C39.9717 21.9013 41.9504 21.9017 43.1704 23.1223C44.2796 24.232 44.3804 25.9681 43.4725 27.1913L43.1696 27.5417L31.8283 38.8781L59.7104 38.8768C61.2925 38.8768 62.6 40.0523 62.8067 41.5777L62.8354 42.0018C62.8354 43.5839 61.6596 44.8914 60.1346 45.0981L59.7104 45.1268L31.8366 45.1281L43.1671 56.4585C44.2767 57.5681 44.3775 59.3044 43.4696 60.5277L43.1671 60.8781Z"
        fill="white" />
</svg>
    