<?xml version="1.0" encoding="UTF-8"?>
<!DOCTYPE svg PUBLIC "-//W3C//DTD SVG 1.1//EN" "http://www.w3.org/Graphics/SVG/1.1/DTD/svg11.dtd">
<svg xmlns="http://www.w3.org/2000/svg" version="1.1" width="400px" height="150px" style="shape-rendering:geometricPrecision; text-rendering:geometricPrecision; image-rendering:optimizeQuality; fill-rule:evenodd; clip-rule:evenodd" xmlns:xlink="http://www.w3.org/1999/xlink">
<g><path style="opacity:0.957" fill="#5b5f5d" d="M -0.5,-0.5 C 1.16667,-0.5 2.83333,-0.5 4.5,-0.5C 4.20487,5.01097 5.0382,10.3443 7,15.5C 28.8009,66.432 51.1342,117.099 74,167.5C 80.3523,174.758 88.1857,179.592 97.5,182C 254.831,183.478 412.164,183.812 569.5,183C 583.462,180.444 594.296,173.277 602,161.5C 626.078,113.011 650.411,64.678 675,16.5C 677.382,11.0902 678.549,5.42352 678.5,-0.5C 680.167,-0.5 681.833,-0.5 683.5,-0.5C 683.207,5.79837 681.707,11.7984 679,17.5C 652.456,71.3423 625.289,124.342 597.5,176.5C 601.381,178.607 605.381,180.441 609.5,182C 767.497,183.477 925.497,183.81 1083.5,183C 1095.54,180.237 1105.37,174.071 1113,164.5C 1138.59,114.322 1163.92,63.9887 1189,13.5C 1190.79,8.99961 1191.63,4.33294 1191.5,-0.5C 1193.17,-0.5 1194.83,-0.5 1196.5,-0.5C 1196.5,1.83333 1196.5,4.16667 1196.5,6.5C 1195.27,9.68669 1194.1,13.02 1193,16.5C 1167.35,69.1258 1140.69,121.126 1113,172.5C 1104.98,179.756 1095.82,184.756 1085.5,187.5C 927.833,187.5 770.167,187.5 612.5,187.5C 605.123,185.977 598.29,182.977 592,178.5C 585.969,182.769 579.469,185.769 572.5,187.5C 414.833,187.5 257.167,187.5 99.5,187.5C 86.5755,184.759 76.0755,178.092 68,167.5C 44.2747,114.401 21.4414,61.0674 -0.5,7.5C -0.5,4.83333 -0.5,2.16667 -0.5,-0.5 Z"/></g>
<g><path style="opacity:1" fill="#f39a20" d="M 4.5,-0.5 C 229.167,-0.5 453.833,-0.5 678.5,-0.5C 678.549,5.42352 677.382,11.0902 675,16.5C 650.411,64.678 626.078,113.011 602,161.5C 594.296,173.277 583.462,180.444 569.5,183C 412.164,183.812 254.831,183.478 97.5,182C 88.1857,179.592 80.3523,174.758 74,167.5C 51.1342,117.099 28.8009,66.432 7,15.5C 5.0382,10.3443 4.20487,5.01097 4.5,-0.5 Z"/></g>
<g><path style="opacity:1"  fill="#3ab193" d="M 683.5,-0.5 C 852.833,-0.5 1022.17,-0.5 1191.5,-0.5C 1191.63,4.33294 1190.79,8.99961 1189,13.5C 1163.92,63.9887 1138.59,114.322 1113,164.5C 1105.37,174.071 1095.54,180.237 1083.5,183C 925.497,183.81 767.497,183.477 609.5,182C 605.381,180.441 601.381,178.607 597.5,176.5C 625.289,124.342 652.456,71.3423 679,17.5C 681.707,11.7984 683.207,5.79837 683.5,-0.5 Z"/></g>
</svg>
