<?xml version="1.0" encoding="UTF-8"?>
<!DOCTYPE svg PUBLIC "-//W3C//DTD SVG 1.1//EN" "http://www.w3.org/Graphics/SVG/1.1/DTD/svg11.dtd">
<svg xmlns="http://www.w3.org/2000/svg" version="1.1" width="1197px" height="188px" style="shape-rendering:geometricPrecision; text-rendering:geometricPrecision; image-rendering:optimizeQuality; fill-rule:evenodd; clip-rule:evenodd" xmlns:xlink="http://www.w3.org/1999/xlink">
<g><path style="opacity:0.957" fill="#5b5f5d" d="M -0.5,-0.5 C 1.16667,-0.5 2.83333,-0.5 4.5,-0.5C 4.20487,5.01097 5.0382,10.3443 7,15.5C 28.8009,66.432 51.1342,117.099 74,167.5C 80.3523,174.758 88.1857,179.592 97.5,182C 254.831,183.478 412.164,183.812 569.5,183C 583.462,180.444 594.296,173.277 602,161.5C 626.078,113.011 650.411,64.678 675,16.5C 677.382,11.0902 678.549,5.42352 678.5,-0.5C 680.167,-0.5 681.833,-0.5 683.5,-0.5C 683.207,5.79837 681.707,11.7984 679,17.5C 652.456,71.3423 625.289,124.342 597.5,176.5C 601.381,178.607 605.381,180.441 609.5,182C 767.497,183.477 925.497,183.81 1083.5,183C 1095.54,180.237 1105.37,174.071 1113,164.5C 1138.59,114.322 1163.92,63.9887 1189,13.5C 1190.79,8.99961 1191.63,4.33294 1191.5,-0.5C 1193.17,-0.5 1194.83,-0.5 1196.5,-0.5C 1196.5,1.83333 1196.5,4.16667 1196.5,6.5C 1195.27,9.68669 1194.1,13.02 1193,16.5C 1167.35,69.1258 1140.69,121.126 1113,172.5C 1104.98,179.756 1095.82,184.756 1085.5,187.5C 927.833,187.5 770.167,187.5 612.5,187.5C 605.123,185.977 598.29,182.977 592,178.5C 585.969,182.769 579.469,185.769 572.5,187.5C 414.833,187.5 257.167,187.5 99.5,187.5C 86.5755,184.759 76.0755,178.092 68,167.5C 44.2747,114.401 21.4414,61.0674 -0.5,7.5C -0.5,4.83333 -0.5,2.16667 -0.5,-0.5 Z"/></g>
<g><path style="opacity:1" fill="#f39b20" d="M 4.5,-0.5 C 229.167,-0.5 453.833,-0.5 678.5,-0.5C 678.549,5.42352 677.382,11.0902 675,16.5C 650.411,64.678 626.078,113.011 602,161.5C 594.296,173.277 583.462,180.444 569.5,183C 412.164,183.812 254.831,183.478 97.5,182C 88.1857,179.592 80.3523,174.758 74,167.5C 51.1342,117.099 28.8009,66.432 7,15.5C 5.0382,10.3443 4.20487,5.01097 4.5,-0.5 Z"/></g>
<g><path style="opacity:1" fill="#3ab194" d="M 683.5,-0.5 C 852.833,-0.5 1022.17,-0.5 1191.5,-0.5C 1191.63,4.33294 1190.79,8.99961 1189,13.5C 1163.92,63.9887 1138.59,114.322 1113,164.5C 1105.37,174.071 1095.54,180.237 1083.5,183C 925.497,183.81 767.497,183.477 609.5,182C 605.381,180.441 601.381,178.607 597.5,176.5C 625.289,124.342 652.456,71.3423 679,17.5C 681.707,11.7984 683.207,5.79837 683.5,-0.5 Z"/></g>
<g><path style="opacity:1" fill="#fff6eb" d="M 189.5,59.5 C 190.833,59.5 192.167,59.5 193.5,59.5C 193.5,63.1667 193.5,66.8333 193.5,70.5C 206.565,71.3968 211.065,78.0635 207,90.5C 203.523,94.8224 199.023,96.8224 193.5,96.5C 193.5,99.8333 193.5,103.167 193.5,106.5C 192.167,106.5 190.833,106.5 189.5,106.5C 189.5,103.167 189.5,99.8333 189.5,96.5C 177.824,96.1889 172.991,90.1889 175,78.5C 178.162,72.8351 182.995,70.1684 189.5,70.5C 189.5,66.8333 189.5,63.1667 189.5,59.5 Z"/></g>
<g><path style="opacity:1" fill="#eff8f6" d="M 902.5,60.5 C 904.844,61.9829 907.344,63.3162 910,64.5C 912.912,64.642 914.412,63.3087 914.5,60.5C 915.5,60.5 916.5,60.5 917.5,60.5C 916.929,64.7221 914.429,66.7221 910,66.5C 905.626,66.7402 903.126,64.7402 902.5,60.5 Z"/></g>
<g><path style="opacity:1" fill="#eff8f6" d="M 1007.5,60.5 C 1009.84,61.9829 1012.34,63.3162 1015,64.5C 1017.91,64.642 1019.41,63.3087 1019.5,60.5C 1020.5,60.5 1021.5,60.5 1022.5,60.5C 1021.93,64.7221 1019.43,66.7221 1015,66.5C 1010.63,66.7402 1008.13,64.7402 1007.5,60.5 Z"/></g>
<g><path style="opacity:1" fill="#f4faf9" d="M 676.5,61.5 C 695.437,60.4053 702.937,69.0719 699,87.5C 693.324,95.8402 685.49,98.6735 675.5,96C 665.843,91.061 662.343,83.2276 665,72.5C 667.495,67.353 671.329,63.6863 676.5,61.5 Z"/></g>
<g><path style="opacity:1" fill="#fff5ea" d="M 126.5,93.5 C 127.167,83.3255 127.833,72.9922 128.5,62.5C 129.167,72.9922 129.833,83.3255 130.5,93.5C 132.5,93.5 134.5,93.5 136.5,93.5C 136.665,97.1817 136.499,100.848 136,104.5C 134.989,105.337 133.822,105.67 132.5,105.5C 132.5,102.5 132.5,99.5 132.5,96.5C 122.167,96.5 111.833,96.5 101.5,96.5C 101.5,84.8333 101.5,73.1667 101.5,61.5C 102.833,61.5 104.167,61.5 105.5,61.5C 105.5,72.1667 105.5,82.8333 105.5,93.5C 112.5,93.5 119.5,93.5 126.5,93.5 Z"/></g>
<g><path style="opacity:1" fill="#fbe5c5" d="M 130.5,93.5 C 129.833,83.3255 129.167,72.9922 128.5,62.5C 127.833,72.9922 127.167,83.3255 126.5,93.5C 126.5,82.8333 126.5,72.1667 126.5,61.5C 127.833,61.5 129.167,61.5 130.5,61.5C 130.5,72.1667 130.5,82.8333 130.5,93.5 Z"/></g>
<g><path style="opacity:1" fill="#40b396" d="M 678.5,64.5 C 692.435,63.9288 698.435,70.4288 696.5,84C 692.65,91.962 686.316,94.962 677.5,93C 666.918,87.5526 664.751,79.7193 671,69.5C 673.479,67.6859 675.979,66.0192 678.5,64.5 Z"/></g>
<g><path style="opacity:1" fill="#fff8f1" d="M 142.5,70.5 C 143.833,70.5 145.167,70.5 146.5,70.5C 146.334,77.175 146.5,83.8417 147,90.5C 152.125,83.7066 157.625,77.2066 163.5,71C 164.448,70.5172 165.448,70.3505 166.5,70.5C 166.5,79.1667 166.5,87.8333 166.5,96.5C 165.5,96.5 164.5,96.5 163.5,96.5C 163.666,89.825 163.5,83.1583 163,76.5C 157.381,82.9072 151.881,89.4072 146.5,96C 145.207,96.49 143.873,96.6567 142.5,96.5C 142.5,87.8333 142.5,79.1667 142.5,70.5 Z"/></g>
<g><path style="opacity:1" fill="#fff6eb" d="M 215.5,70.5 C 216.833,70.5 218.167,70.5 219.5,70.5C 219.34,72.1992 219.506,73.8659 220,75.5C 227.254,68.5984 234.254,68.9317 241,76.5C 245.199,91.2843 239.699,97.7843 224.5,96C 222.714,95.2155 221.214,94.0488 220,92.5C 219.501,97.1548 219.334,101.821 219.5,106.5C 218.167,106.5 216.833,106.5 215.5,106.5C 215.5,94.5 215.5,82.5 215.5,70.5 Z"/></g>
<g><path style="opacity:1" fill="#fff7ef" d="M 256.5,70.5 C 272.445,70.2751 277.612,77.6084 272,92.5C 265.837,98.342 259.337,98.842 252.5,94C 245.34,84.6643 246.673,76.831 256.5,70.5 Z"/></g>
<g><path style="opacity:1" fill="#fff8f1" d="M 282.5,70.5 C 288.621,70.0899 294.621,70.5899 300.5,72C 304.619,76.0734 304.285,79.74 299.5,83C 306.167,87.3333 306.167,91.6667 299.5,96C 293.843,96.4994 288.176,96.6661 282.5,96.5C 282.5,87.8333 282.5,79.1667 282.5,70.5 Z"/></g>
<g><path style="opacity:1" fill="#fef7ed" d="M 315.5,70.5 C 319.182,70.3347 322.848,70.5014 326.5,71C 328.286,71.7845 329.786,72.9512 331,74.5C 332.429,81.7194 332.929,89.0528 332.5,96.5C 331.167,96.5 329.833,96.5 328.5,96.5C 328.649,95.448 328.483,94.448 328,93.5C 327.097,94.7014 325.931,95.5348 324.5,96C 320.1,96.9777 315.933,96.4777 312,94.5C 309.144,89.0799 310.311,84.9132 315.5,82C 319.821,81.501 324.154,81.3343 328.5,81.5C 329.275,77.8184 327.941,75.3184 324.5,74C 320.171,72.8485 316.338,73.6819 313,76.5C 312.308,75.9747 311.808,75.3081 311.5,74.5C 312.549,72.7844 313.882,71.4511 315.5,70.5 Z"/></g>
<g><path style="opacity:1" fill="#fff3e5" d="M 345.5,70.5 C 351.167,70.5 356.833,70.5 362.5,70.5C 362.5,79.1667 362.5,87.8333 362.5,96.5C 361.167,96.5 359.833,96.5 358.5,96.5C 358.5,93.8333 358.5,91.1667 358.5,88.5C 355.102,88.1796 351.768,88.513 348.5,89.5C 347.197,91.9371 345.53,94.1038 343.5,96C 342.365,96.7494 341.365,96.5827 340.5,95.5C 342.043,92.914 343.709,90.414 345.5,88C 337.555,82.1697 337.555,76.3363 345.5,70.5 Z"/></g>
<g><path style="opacity:1" fill="#fff8f1" d="M 385.5,70.5 C 391.621,70.0899 397.621,70.5899 403.5,72C 407.619,76.0734 407.285,79.74 402.5,83C 409.167,87.3333 409.167,91.6667 402.5,96C 396.843,96.4994 391.176,96.6661 385.5,96.5C 385.5,87.8333 385.5,79.1667 385.5,70.5 Z"/></g>
<g><path style="opacity:1" fill="#fff8f1" d="M 415.5,70.5 C 416.833,70.5 418.167,70.5 419.5,70.5C 419.334,77.175 419.5,83.8417 420,90.5C 425.125,83.7066 430.625,77.2066 436.5,71C 437.448,70.5172 438.448,70.3505 439.5,70.5C 439.5,79.1667 439.5,87.8333 439.5,96.5C 438.5,96.5 437.5,96.5 436.5,96.5C 436.666,89.825 436.5,83.1583 436,76.5C 430.381,82.9072 424.881,89.4072 419.5,96C 418.207,96.49 416.873,96.6567 415.5,96.5C 415.5,87.8333 415.5,79.1667 415.5,70.5 Z"/></g>
<g><path style="opacity:1" fill="#fff5e9" d="M 450.5,70.5 C 455.267,70.1908 459.934,70.6908 464.5,72C 468.644,75.9786 468.31,79.6453 463.5,83C 469.727,86.4776 470.06,90.4776 464.5,95C 458.833,97 453.167,97 447.5,95C 446.269,93.8173 446.269,92.6507 447.5,91.5C 451.974,93.4679 456.64,93.9679 461.5,93C 464.362,91.2141 465.028,88.8808 463.5,86C 459.974,84.6632 456.308,84.1632 452.5,84.5C 452.5,83.5 452.5,82.5 452.5,81.5C 455.518,81.6646 458.518,81.498 461.5,81C 464.371,78.1598 464.037,75.8265 460.5,74C 456.336,73.1872 452.336,73.6872 448.5,75.5C 447.417,74.635 447.251,73.635 448,72.5C 448.995,71.9341 449.828,71.2674 450.5,70.5 Z"/></g>
<g><path style="opacity:1" fill="#fff4e8" d="M 475.5,70.5 C 476.833,70.5 478.167,70.5 479.5,70.5C 479.334,77.175 479.5,83.8417 480,90.5C 485.875,84.2934 491.375,77.7934 496.5,71C 497.793,70.51 499.127,70.3433 500.5,70.5C 500.5,79.1667 500.5,87.8333 500.5,96.5C 499.167,96.5 497.833,96.5 496.5,96.5C 496.666,90.1579 496.5,83.8246 496,77.5C 490.5,83.6667 485,89.8333 479.5,96C 478.207,96.49 476.873,96.6567 475.5,96.5C 475.5,87.8333 475.5,79.1667 475.5,70.5 Z"/></g>
<g><path style="opacity:1" fill="#fff7ef" d="M 505.5,70.5 C 513.5,70.5 521.5,70.5 529.5,70.5C 529.5,71.5 529.5,72.5 529.5,73.5C 526.167,73.5 522.833,73.5 519.5,73.5C 519.5,81.1667 519.5,88.8333 519.5,96.5C 518.167,96.5 516.833,96.5 515.5,96.5C 515.5,88.8333 515.5,81.1667 515.5,73.5C 512.167,73.5 508.833,73.5 505.5,73.5C 505.5,72.5 505.5,71.5 505.5,70.5 Z"/></g>
<g><path style="opacity:1" fill="#fffbf6" d="M 537.5,70.5 C 537.5,74.5 537.5,78.5 537.5,82.5C 540.059,82.8016 542.393,82.4682 544.5,81.5C 546.951,77.8765 549.617,74.3765 552.5,71C 553.833,70.3333 555.167,70.3333 556.5,71C 553.101,74.728 550.101,78.728 547.5,83C 550.436,87.6075 553.77,91.9408 557.5,96C 555.741,96.7975 554.074,96.6309 552.5,95.5C 549.483,92.0938 546.483,88.7605 543.5,85.5C 541.735,84.5386 539.735,84.2053 537.5,84.5C 537.5,88.5 537.5,92.5 537.5,96.5C 536.5,96.5 535.5,96.5 534.5,96.5C 534.5,87.8333 534.5,79.1667 534.5,70.5C 535.5,70.5 536.5,70.5 537.5,70.5 Z"/></g>
<g><path style="opacity:1" fill="#f8bc6a" d="M 537.5,70.5 C 538.482,73.9619 538.815,77.6286 538.5,81.5C 540.5,81.5 542.5,81.5 544.5,81.5C 542.393,82.4682 540.059,82.8016 537.5,82.5C 537.5,78.5 537.5,74.5 537.5,70.5 Z"/></g>
<g><path style="opacity:1" fill="#fff7ed" d="M 566.5,70.5 C 569.85,70.335 573.183,70.5017 576.5,71C 578.286,71.7845 579.786,72.9512 581,74.5C 582.429,81.7194 582.929,89.0528 582.5,96.5C 580.549,96.7733 579.049,96.1066 578,94.5C 573.729,96.4956 569.229,96.9956 564.5,96C 559.636,91.9654 559.302,87.632 563.5,83C 568.401,81.6746 573.401,81.1746 578.5,81.5C 578.054,73.8791 574.054,71.3791 566.5,74C 565.069,74.4652 563.903,75.2986 563,76.5C 561.77,75.7248 561.437,74.7248 562,73.5C 563.409,72.2189 564.909,71.2189 566.5,70.5 Z"/></g>
<g><path style="opacity:1" fill="#f3faf8" d="M 714.5,70.5 C 718.605,70.2338 722.605,70.7338 726.5,72C 727.687,73.0195 728.687,74.1861 729.5,75.5C 729,75.8333 728.5,76.1667 728,76.5C 720.397,71.4391 714.397,72.7725 710,80.5C 708.812,88.1506 711.978,92.4839 719.5,93.5C 722.597,93.617 725.264,92.617 727.5,90.5C 728.5,90.8333 729.167,91.5 729.5,92.5C 728.395,93.8924 727.061,95.059 725.5,96C 711.223,98.7225 705.056,92.8892 707,78.5C 709.028,75.3078 711.528,72.6411 714.5,70.5 Z"/></g>
<g><path style="opacity:1" fill="#f4fbf9" d="M 740.5,81.5 C 745.975,82.4889 751.642,82.8222 757.5,82.5C 757.5,78.5 757.5,74.5 757.5,70.5C 758.5,70.5 759.5,70.5 760.5,70.5C 760.5,79.1667 760.5,87.8333 760.5,96.5C 759.5,96.5 758.5,96.5 757.5,96.5C 757.5,92.5 757.5,88.5 757.5,84.5C 751.642,84.1778 745.975,84.5111 740.5,85.5C 740.5,89.1667 740.5,92.8333 740.5,96.5C 739.167,96.5 737.833,96.5 736.5,96.5C 736.5,87.8333 736.5,79.1667 736.5,70.5C 737.833,70.5 739.167,70.5 740.5,70.5C 740.5,74.1667 740.5,77.8333 740.5,81.5 Z"/></g>
<g><path style="opacity:1" fill="#f5fbf9" d="M 776.5,70.5 C 792.47,70.2962 797.637,77.6295 792,92.5C 787.139,96.2841 781.639,97.4507 775.5,96C 768.028,90.2269 766.528,83.0602 771,74.5C 772.812,73.0229 774.645,71.6896 776.5,70.5 Z"/></g>
<g><path style="opacity:1" fill="#f8fcfb" d="M 802.5,70.5 C 807.844,70.334 813.177,70.5006 818.5,71C 823.038,72.6643 824.538,75.8309 823,80.5C 822.097,81.7014 820.931,82.5348 819.5,83C 824.33,85.0812 825.663,88.5812 823.5,93.5C 822.335,94.5836 821.002,95.4169 819.5,96C 813.843,96.4994 808.176,96.6661 802.5,96.5C 802.5,87.8333 802.5,79.1667 802.5,70.5 Z"/></g>
<g><path style="opacity:1" fill="#f4fbf9" d="M 836.5,81.5 C 841.975,82.4889 847.642,82.8222 853.5,82.5C 853.5,78.5 853.5,74.5 853.5,70.5C 854.5,70.5 855.5,70.5 856.5,70.5C 856.5,79.1667 856.5,87.8333 856.5,96.5C 855.5,96.5 854.5,96.5 853.5,96.5C 853.5,92.5 853.5,88.5 853.5,84.5C 847.642,84.1778 841.975,84.5111 836.5,85.5C 836.5,89.1667 836.5,92.8333 836.5,96.5C 835.167,96.5 833.833,96.5 832.5,96.5C 832.5,87.8333 832.5,79.1667 832.5,70.5C 833.833,70.5 835.167,70.5 836.5,70.5C 836.5,74.1667 836.5,77.8333 836.5,81.5 Z"/></g>
<g><path style="opacity:1" fill="#f5fbf9" d="M 872.5,70.5 C 888.47,70.2962 893.637,77.6295 888,92.5C 883.139,96.2841 877.639,97.4507 871.5,96C 864.028,90.2269 862.528,83.0602 867,74.5C 868.812,73.0229 870.645,71.6896 872.5,70.5 Z"/></g>
<g><path style="opacity:1" fill="#fafdfc" d="M 898.5,70.5 C 899.5,70.5 900.5,70.5 901.5,70.5C 901.334,77.5079 901.5,84.5079 902,91.5C 907.311,84.6877 912.811,78.021 918.5,71.5C 919.689,70.5713 921.022,70.238 922.5,70.5C 922.5,79.1667 922.5,87.8333 922.5,96.5C 921.5,96.5 920.5,96.5 919.5,96.5C 919.666,89.825 919.5,83.1583 919,76.5C 913.313,82.6856 907.813,89.0189 902.5,95.5C 901.311,96.4287 899.978,96.762 898.5,96.5C 898.5,87.8333 898.5,79.1667 898.5,70.5 Z"/></g>
<g><path style="opacity:1" fill="#f3faf8" d="M 951.5,70.5 C 955.605,70.2338 959.605,70.7338 963.5,72C 964.687,73.0195 965.687,74.1861 966.5,75.5C 966,75.8333 965.5,76.1667 965,76.5C 957.397,71.4391 951.397,72.7725 947,80.5C 945.812,88.1506 948.978,92.4839 956.5,93.5C 959.597,93.617 962.264,92.617 964.5,90.5C 965.5,90.8333 966.167,91.5 966.5,92.5C 965.395,93.8924 964.061,95.059 962.5,96C 948.223,98.7225 942.056,92.8892 944,78.5C 946.028,75.3078 948.528,72.6411 951.5,70.5 Z"/></g>
<g><path style="opacity:1" fill="#f4faf9" d="M 977.5,70.5 C 980.85,70.335 984.183,70.5017 987.5,71C 989.939,71.7739 991.773,73.2739 993,75.5C 993.5,82.4921 993.666,89.4921 993.5,96.5C 992.5,96.5 991.5,96.5 990.5,96.5C 990.649,95.448 990.483,94.448 990,93.5C 989.097,94.7014 987.931,95.5348 986.5,96C 983.167,96.6667 979.833,96.6667 976.5,96C 969.594,90.854 969.927,86.1873 977.5,82C 981.821,81.501 986.154,81.3343 990.5,81.5C 990.854,78.0388 989.521,75.5388 986.5,74C 981.848,72.8069 977.681,73.6403 974,76.5C 973.626,75.5838 973.126,74.7504 972.5,74C 974.233,72.8111 975.9,71.6444 977.5,70.5 Z"/></g>
<g><path style="opacity:1" fill="#fafdfc" d="M 1003.5,70.5 C 1004.5,70.5 1005.5,70.5 1006.5,70.5C 1006.33,77.5079 1006.5,84.5079 1007,91.5C 1012.31,84.6877 1017.81,78.021 1023.5,71.5C 1024.69,70.5713 1026.02,70.238 1027.5,70.5C 1027.5,79.1667 1027.5,87.8333 1027.5,96.5C 1026.5,96.5 1025.5,96.5 1024.5,96.5C 1024.67,89.825 1024.5,83.1583 1024,76.5C 1018.31,82.6856 1012.81,89.0189 1007.5,95.5C 1006.31,96.4287 1004.98,96.762 1003.5,96.5C 1003.5,87.8333 1003.5,79.1667 1003.5,70.5 Z"/></g>
<g><path style="opacity:1" fill="#fefffe" d="M 1032.5,70.5 C 1040.17,70.5 1047.83,70.5 1055.5,70.5C 1055.5,71.5 1055.5,72.5 1055.5,73.5C 1052.17,73.5 1048.83,73.5 1045.5,73.5C 1045.5,81.1667 1045.5,88.8333 1045.5,96.5C 1044.5,96.5 1043.5,96.5 1042.5,96.5C 1042.5,88.8333 1042.5,81.1667 1042.5,73.5C 1039.17,73.5 1035.83,73.5 1032.5,73.5C 1032.5,72.5 1032.5,71.5 1032.5,70.5 Z"/></g>
<g><path style="opacity:1" fill="#f49d28" d="M 184.5,73.5 C 186.167,73.5 187.833,73.5 189.5,73.5C 189.5,80.1667 189.5,86.8333 189.5,93.5C 180.253,93.3561 176.419,88.6894 178,79.5C 179.914,77.1435 182.081,75.1435 184.5,73.5 Z"/></g>
<g><path style="opacity:1" fill="#f49d27" d="M 225.5,73.5 C 237.615,73.7599 241.448,79.4266 237,90.5C 231.318,94.7925 225.984,94.4592 221,89.5C 217.975,82.7419 219.475,77.4085 225.5,73.5 Z"/></g>
<g><path style="opacity:1" fill="#f49d28" d="M 257.5,73.5 C 269.793,73.4158 273.626,79.0825 269,90.5C 265.662,93.3181 261.829,94.1515 257.5,93C 251.975,90.0812 250.142,85.5812 252,79.5C 253.36,76.9774 255.193,74.9774 257.5,73.5 Z"/></g>
<g><path style="opacity:1" fill="#f49d28" d="M 285.5,73.5 C 289.514,73.3345 293.514,73.5012 297.5,74C 299.725,76.025 300.059,78.3583 298.5,81C 294.179,81.499 289.846,81.6657 285.5,81.5C 285.5,78.8333 285.5,76.1667 285.5,73.5 Z"/></g>
<g><path style="opacity:1" fill="#f49d28" d="M 346.5,73.5 C 350.5,73.5 354.5,73.5 358.5,73.5C 358.5,77.5 358.5,81.5 358.5,85.5C 354.033,85.8674 349.7,85.3674 345.5,84C 342.711,80.2252 343.045,76.7252 346.5,73.5 Z"/></g>
<g><path style="opacity:1" fill="#f49d28" d="M 388.5,73.5 C 392.514,73.3345 396.514,73.5012 400.5,74C 402.725,76.025 403.059,78.3583 401.5,81C 397.179,81.499 392.846,81.6657 388.5,81.5C 388.5,78.8333 388.5,76.1667 388.5,73.5 Z"/></g>
<g><path style="opacity:1" fill="#41b497" d="M 777.5,73.5 C 787.442,72.2765 791.942,76.6099 791,86.5C 788.27,93.053 783.437,95.2196 776.5,93C 769.606,86.0239 769.939,79.5239 777.5,73.5 Z"/></g>
<g><path style="opacity:1" fill="#3fb396" d="M 806.5,73.5 C 810.967,73.1326 815.3,73.6326 819.5,75C 821.264,78.4484 820.264,80.615 816.5,81.5C 813.167,81.5 809.833,81.5 806.5,81.5C 806.5,78.8333 806.5,76.1667 806.5,73.5 Z"/></g>
<g><path style="opacity:1" fill="#41b497" d="M 873.5,73.5 C 883.442,72.2765 887.942,76.6099 887,86.5C 884.27,93.053 879.437,95.2196 872.5,93C 865.606,86.0239 865.939,79.5239 873.5,73.5 Z"/></g>
<g><path style="opacity:1" fill="#f49c24" d="M 193.5,73.5 C 203.029,74.2041 206.529,79.2041 204,88.5C 201.45,92.1917 197.95,93.8584 193.5,93.5C 193.5,86.8333 193.5,80.1667 193.5,73.5 Z"/></g>
<g><path style="opacity:1" fill="#9fd9cb" d="M 757.5,70.5 C 757.5,74.5 757.5,78.5 757.5,82.5C 751.642,82.8222 745.975,82.4889 740.5,81.5C 745.833,81.5 751.167,81.5 756.5,81.5C 756.185,77.6286 756.518,73.9619 757.5,70.5 Z"/></g>
<g><path style="opacity:1" fill="#a0dacc" d="M 806.5,73.5 C 806.5,76.1667 806.5,78.8333 806.5,81.5C 809.833,81.5 813.167,81.5 816.5,81.5C 813.038,82.4816 809.371,82.815 805.5,82.5C 805.19,79.2869 805.523,76.2869 806.5,73.5 Z"/></g>
<g><path style="opacity:1" fill="#9fd9cb" d="M 853.5,70.5 C 853.5,74.5 853.5,78.5 853.5,82.5C 847.642,82.8222 841.975,82.4889 836.5,81.5C 841.833,81.5 847.167,81.5 852.5,81.5C 852.185,77.6286 852.518,73.9619 853.5,70.5 Z"/></g>
<g><path style="opacity:1" fill="#f49e2b" d="M 316.5,84.5 C 320.5,84.5 324.5,84.5 328.5,84.5C 329.184,90.485 326.517,93.8183 320.5,94.5C 313.069,93.407 311.736,90.0737 316.5,84.5 Z"/></g>
<g><path style="opacity:1" fill="#f49e29" d="M 566.5,84.5 C 570.5,84.5 574.5,84.5 578.5,84.5C 577.961,93.6895 573.461,96.3561 565,92.5C 564.109,89.5024 564.609,86.8357 566.5,84.5 Z"/></g>
<g><path style="opacity:1" fill="#9fd9cb" d="M 740.5,85.5 C 745.975,84.5111 751.642,84.1778 757.5,84.5C 757.5,88.5 757.5,92.5 757.5,96.5C 756.518,93.0381 756.185,89.3714 756.5,85.5C 751.167,85.5 745.833,85.5 740.5,85.5 Z"/></g>
<g><path style="opacity:1" fill="#9fd9cb" d="M 836.5,85.5 C 841.975,84.5111 847.642,84.1778 853.5,84.5C 853.5,88.5 853.5,92.5 853.5,96.5C 852.518,93.0381 852.185,89.3714 852.5,85.5C 847.167,85.5 841.833,85.5 836.5,85.5 Z"/></g>
<g><path style="opacity:1" fill="#45b599" d="M 977.5,84.5 C 981.833,84.5 986.167,84.5 990.5,84.5C 990.169,92.1763 986.169,95.3429 978.5,94C 974.956,91.1268 974.623,87.9601 977.5,84.5 Z"/></g>
<g><path style="opacity:1" fill="#f8bb69" d="M 296.5,85.5 C 293.167,85.5 289.833,85.5 286.5,85.5C 286.5,88.1667 286.5,90.8333 286.5,93.5C 289.833,93.5 293.167,93.5 296.5,93.5C 293.038,94.4816 289.371,94.815 285.5,94.5C 285.5,91.1667 285.5,87.8333 285.5,84.5C 289.371,84.185 293.038,84.5184 296.5,85.5 Z"/></g>
<g><path style="opacity:1" fill="#f49b22" d="M 296.5,85.5 C 299.488,85.1547 300.821,86.488 300.5,89.5C 300.469,92.1755 299.136,93.5088 296.5,93.5C 293.167,93.5 289.833,93.5 286.5,93.5C 286.5,90.8333 286.5,88.1667 286.5,85.5C 289.833,85.5 293.167,85.5 296.5,85.5 Z"/></g>
<g><path style="opacity:1" fill="#f8bb69" d="M 399.5,85.5 C 396.167,85.5 392.833,85.5 389.5,85.5C 389.5,88.1667 389.5,90.8333 389.5,93.5C 392.833,93.5 396.167,93.5 399.5,93.5C 396.038,94.4816 392.371,94.815 388.5,94.5C 388.5,91.1667 388.5,87.8333 388.5,84.5C 392.371,84.185 396.038,84.5184 399.5,85.5 Z"/></g>
<g><path style="opacity:1" fill="#f49b22" d="M 399.5,85.5 C 402.488,85.1547 403.821,86.488 403.5,89.5C 403.469,92.1755 402.136,93.5088 399.5,93.5C 396.167,93.5 392.833,93.5 389.5,93.5C 389.5,90.8333 389.5,88.1667 389.5,85.5C 392.833,85.5 396.167,85.5 399.5,85.5 Z"/></g>
<g><path style="opacity:1" fill="#f8ba67" d="M 543.5,85.5 C 541.833,85.5 540.167,85.5 538.5,85.5C 538.815,89.3714 538.482,93.0381 537.5,96.5C 537.5,92.5 537.5,88.5 537.5,84.5C 539.735,84.2053 541.735,84.5386 543.5,85.5 Z"/></g>
<g><path style="opacity:1" fill="#43b598" d="M 806.5,84.5 C 810.967,84.1326 815.3,84.6326 819.5,86C 822.668,90.1615 821.668,92.6615 816.5,93.5C 813.167,93.5 809.833,93.5 806.5,93.5C 806.5,90.5 806.5,87.5 806.5,84.5 Z"/></g>
<g><path style="opacity:1" fill="#9fd9cb" d="M 806.5,84.5 C 806.5,87.5 806.5,90.5 806.5,93.5C 809.833,93.5 813.167,93.5 816.5,93.5C 813.038,94.4816 809.371,94.815 805.5,94.5C 805.187,90.9581 805.521,87.6248 806.5,84.5 Z"/></g>
</svg>
