<svg width="86" height="61" viewBox="0 0 86 61" fill="none" xmlns="http://www.w3.org/2000/svg">
    <path d="M14.3125 0.166504H71.6875C79.0527 0.166504 85.0716 5.30971 85.4783 11.7902L85.5 12.4894V48.5103C85.5 55.0812 79.7349 60.451 72.4712 60.8138L71.6875 60.8332H14.3125C6.94712 60.8332 0.928188 55.6898 0.521845 49.2094L0.5 48.5103V12.4894C0.5 5.91835 6.26491 0.548514 13.5287 0.185992L14.3125 0.166504ZM79.125 20.5391L44.4845 36.808C43.6881 37.1819 42.7582 37.2354 41.9239 36.9684L41.5155 36.808L6.875 20.5429V48.5103C6.875 51.9918 9.88022 54.8469 13.7025 55.1237L14.3125 55.1457H71.6875C75.5899 55.1457 78.7901 52.4646 79.1003 49.0544L79.125 48.5103V20.5391ZM71.6875 5.854H14.3125C10.4103 5.854 7.20994 8.53513 6.89965 11.9452L6.875 12.4894V14.116L43 31.0781L79.125 14.1123V12.4894C79.125 9.00803 76.1198 6.15282 72.2974 5.87599L71.6875 5.854Z" fill="#626262"/>
    </svg>
    