<svg width="60" height="48" viewBox="0 0 60 48" fill="none" xmlns="http://www.w3.org/2000/svg">
<path d="M10.3125 0.666504H49.6875C54.7421 0.666504 58.8727 4.62282 59.1518 9.60778L59.1667 10.1457V37.854C59.1667 42.9086 55.2102 47.0392 50.2254 47.3183L49.6875 47.3332H10.3125C5.25787 47.3332 1.12723 43.3767 0.848366 38.3918L0.833374 37.854V10.1457C0.833374 5.091 4.78969 0.960358 9.77465 0.681495L10.3125 0.666504ZM54.7917 16.3378L31.0188 28.8523C30.4722 29.1399 29.8341 29.181 29.2615 28.9757L28.9812 28.8523L5.20837 16.3407V37.854C5.20837 40.5321 7.27078 42.7283 9.89391 42.9413L10.3125 42.9582H49.6875C52.3656 42.9582 54.5619 40.8958 54.7748 38.2725L54.7917 37.854V16.3378ZM49.6875 5.0415H10.3125C7.63454 5.0415 5.43824 7.10391 5.22529 9.72704L5.20837 10.1457V11.3969L30 24.4446L54.7917 11.394V10.1457C54.7917 7.46768 52.7293 5.27137 50.1061 5.05842L49.6875 5.0415Z" fill="#000"/>
</svg>
