<svg width="59" height="84" viewBox="0 0 59 84" fill="none" xmlns="http://www.w3.org/2000/svg">
    <path d="M11.0519 2.07666L15.5254 0.610996C20.595 -1.05 26.0114 1.63429 28.1826 6.88358L31.6391 15.2407C33.4894 19.715 32.5142 24.9734 29.2137 28.319L23.4856 34.1252C23.3181 34.2948 23.2119 34.524 23.1866 34.7715C23.0164 36.4261 24.0487 39.6486 26.4261 44.1248C28.1553 47.3802 29.7201 49.6627 31.0522 50.9469C31.9802 51.8415 32.4912 52.0348 32.7086 51.9644L40.4151 49.4036C44.7299 47.9698 49.4058 49.6794 52.0458 53.6565L56.9552 61.0523C60.0452 65.7073 59.4894 72.1294 55.6553 76.0765L52.2574 79.574C48.5912 83.3482 43.3717 84.7544 38.5084 83.279C27.951 80.0761 18.4853 70.3919 10.0065 54.4294C1.51582 38.4444 -1.46341 24.6757 1.28298 13.1266C2.53982 7.84129 6.24331 3.65216 11.0519 2.07666ZM12.7114 8.0607C9.82622 9.006 7.60411 11.5195 6.85002 14.6907C4.53986 24.4053 7.18049 36.609 14.9861 51.3044C22.7814 65.9798 31.1722 74.5644 40.054 77.259C42.9723 78.1444 46.1038 77.3007 48.3037 75.0361L51.7012 71.5386C53.4442 69.7444 53.6968 66.8252 52.2923 64.7094L47.3829 57.3136C46.1827 55.5061 44.0572 54.7286 42.096 55.3807L34.3707 57.9477C29.8869 59.4007 25.817 55.4777 21.4466 47.2498C18.5014 41.7052 17.1288 37.419 17.4721 34.0777C17.65 32.3466 18.392 30.742 19.5639 29.5541L25.2922 23.7481C26.7926 22.2273 27.2357 19.8372 26.3947 17.8034L22.9382 9.44625C21.9513 7.0602 19.4892 5.84004 17.1849 6.59504L12.7114 8.0607Z" fill="#626262"/>
    </svg>
    