<svg width="40" height="40" viewBox="0 0 40 40" fill="none" xmlns="http://www.w3.org/2000/svg">
<path d="M11.7616 4.03057L13.7066 3.4443C15.9108 2.7799 18.2657 3.85362 19.2097 5.95333L20.7125 9.2962C21.517 11.0859 21.093 13.1893 19.658 14.5275L17.1675 16.85C17.0947 16.9178 17.0485 17.0095 17.0375 17.1085C16.9635 17.7703 17.4124 19.0593 18.446 20.8498C19.1979 22.152 19.8782 23.065 20.4574 23.5787C20.8609 23.9365 21.083 24.0138 21.1775 23.9857L24.5282 22.9613C26.4042 22.3878 28.4372 23.0717 29.585 24.6625L31.7195 27.6208C33.063 29.4828 32.8214 32.0517 31.1544 33.6305L29.677 35.0295C28.083 36.5392 25.8137 37.1017 23.6992 36.5115C19.109 35.2303 14.9935 31.3567 11.3071 24.9717C7.61547 18.5777 6.32016 13.0702 7.51424 8.45055C8.06069 6.33642 9.67091 4.66077 11.7616 4.03057ZM12.4831 6.42418C11.2287 6.8023 10.2626 7.8077 9.93469 9.07618C8.93027 12.962 10.0784 17.8435 13.4721 23.7217C16.8614 29.5918 20.5095 33.0257 24.3712 34.1035C25.64 34.4577 27.0015 34.1202 27.958 33.2143L29.4352 31.8153C30.193 31.0977 30.3029 29.93 29.6922 29.0837L27.5577 26.1253C27.0359 25.4023 26.1117 25.0913 25.259 25.3522L21.9002 26.379C19.9507 26.9602 18.1812 25.391 16.281 22.0998C15.0005 19.882 14.4037 18.1675 14.553 16.831C14.6303 16.1385 14.9529 15.4967 15.4625 15.0216L17.953 12.6991C18.6054 12.0908 18.798 11.1348 18.4324 10.3213L16.9295 6.9784C16.5005 6.02398 15.43 5.53592 14.4281 5.83792L12.4831 6.42418Z" fill="#000"/>
</svg>
