<svg width="65" height="65" viewBox="0 0 65 65" fill="none" xmlns="http://www.w3.org/2000/svg">
<g clip-path="url(#clip0_67_408)">
<path d="M32.5 5.4165C47.4575 5.4165 59.5833 17.5421 59.5833 32.4998C59.5833 47.4574 47.4575 59.5832 32.5 59.5832C28.1171 59.5832 23.8815 58.5394 20.0765 56.5715L9.71486 59.4621C7.91403 59.9651 6.04653 58.9129 5.54367 57.1121C5.37725 56.5163 5.37733 55.886 5.54378 55.2907L8.43536 44.937C6.46304 41.1286 5.41663 36.8882 5.41663 32.4998C5.41663 17.5421 17.5422 5.4165 32.5 5.4165ZM32.5 9.479C19.7859 9.479 9.47913 19.7858 9.47913 32.4998C9.47913 36.48 10.4887 40.3091 12.3852 43.7056L12.7933 44.436L9.77964 55.2266L20.5767 52.2143L21.3067 52.6214C24.7001 54.5135 28.5247 55.5207 32.5 55.5207C45.2139 55.5207 55.5208 45.2138 55.5208 32.4998C55.5208 19.7858 45.2139 9.479 32.5 9.479Z" fill="#000"/>
</g>
<path d="M18.7904 16.9862L20.8236 15.7638C23.1278 14.3784 26.1006 14.9476 27.7704 17.0938L30.4289 20.5106C31.852 22.3399 31.9747 24.8763 30.7341 26.8188L28.5808 30.19C28.5178 30.2885 28.4918 30.4069 28.5078 30.5237C28.6136 31.305 29.4908 32.6594 31.1736 34.425C32.3975 35.709 33.429 36.5661 34.2316 36.9928C34.7908 37.2901 35.0644 37.3163 35.1632 37.2573L38.6618 35.1349C40.6207 33.9466 43.1174 34.1586 44.8721 35.6626L48.1353 38.4593C50.1892 40.2196 50.6516 43.2393 49.2173 45.5238L47.9461 47.5481C46.5746 49.7324 44.1675 51.019 41.6054 50.9376C36.0435 50.7608 30.2762 47.4713 24.275 41.1753C18.2654 34.8704 15.2217 28.9079 15.2497 23.2631C15.2625 20.6799 16.6048 18.3002 18.7904 16.9862ZM20.2926 19.5328C18.9813 20.3212 18.1759 21.749 18.1682 23.299C18.1447 28.0472 20.8424 33.3319 26.3672 39.1282C31.8845 44.9165 36.9969 47.8325 41.6761 47.9813C43.2135 48.0302 44.6577 47.2582 45.4807 45.9475L46.7517 43.9233C47.4037 42.8849 47.1935 41.5122 46.26 40.7121L42.9968 37.9154C42.1991 37.2319 41.0641 37.1354 40.1738 37.6756L36.6667 39.8032C34.6269 41.0211 32.1748 39.7174 29.0815 36.4721C26.9969 34.2852 25.8303 32.4837 25.6164 30.906C25.5056 30.0885 25.6868 29.26 26.1274 28.5703L28.2807 25.1991C28.8447 24.3161 28.7889 23.1633 28.142 22.3318L25.4835 18.9149C24.7245 17.9394 23.3732 17.6807 22.3259 18.3104L20.2926 19.5328Z" fill="#000"/>
<defs>
<clipPath id="clip0_67_408">
<rect width="65" height="65" fill="white"/>
</clipPath>
</defs>
</svg>
