<svg width="60" height="49" viewBox="0 0 60 49" fill="none" xmlns="http://www.w3.org/2000/svg">
<path d="M22.7084 17.0908V31.0782C22.7084 32.6011 24.4872 33.5681 25.945 32.8377L39.9048 25.8433C41.4226 25.0826 41.4223 23.0844 39.9045 22.324L25.945 15.3312C24.4872 14.6009 22.7084 15.568 22.7084 17.0908ZM10.3125 0.0209961C5.07733 0.0209961 0.833374 3.91129 0.833374 8.71023V39.4568C0.833374 44.2556 5.07733 48.146 10.3125 48.146H49.6875C54.9227 48.146 59.1667 44.2556 59.1667 39.4568V8.71023C59.1667 3.91129 54.9227 0.0209961 49.6875 0.0209961H10.3125ZM5.20837 8.71023C5.20837 6.12619 7.49358 4.03141 10.3125 4.03141H49.6875C52.5065 4.03141 54.7917 6.12619 54.7917 8.71023V39.4568C54.7917 42.0408 52.5065 44.1356 49.6875 44.1356H10.3125C7.49358 44.1356 5.20837 42.0408 5.20837 39.4568V8.71023Z" fill="#000"/>
</svg>
