<svg width="100" height="100" viewBox="0 0 100 100" fill="none" xmlns="http://www.w3.org/2000/svg">
    <path
        d="M49.9992 91.6665C73.0111 91.6665 91.6659 73.0117 91.6659 49.9998C91.6659 26.9881 73.0111 8.33313 49.9992 8.33313C26.9875 8.33313 8.33252 26.9881 8.33252 49.9998C8.33252 73.0117 26.9875 91.6665 49.9992 91.6665ZM48.8321 31.1219C49.9417 30.0123 51.6775 29.9115 52.9009 30.8194L53.2513 31.1219L69.9216 47.7919C71.0312 48.9015 71.1319 50.6382 70.2238 51.8615L69.9212 52.2119L53.248 68.8785C52.0275 70.0987 50.0488 70.0983 48.8288 68.8777C47.7196 67.768 47.6188 66.0319 48.5267 64.8087L48.8296 64.4583L60.171 53.1219L32.2888 53.1232C30.7067 53.1232 29.3992 51.9477 29.1925 50.4223L29.1638 49.9982C29.1638 48.4161 30.3396 47.1086 31.8646 46.9019L32.2888 46.8732L60.1626 46.8719L48.8321 35.5415C47.7225 34.4319 47.6217 32.6956 48.5296 31.4723L48.8321 31.1219Z"
        fill="white" />
</svg>
    